<mxfile host="65bd71144e">
    <diagram id="HIP3nbAZw_EuaXWnEj3U" name="Page-1">
        <mxGraphModel dx="1932" dy="530" grid="1" gridSize="10" guides="1" tooltips="1" connect="1" arrows="1" fold="1" page="1" pageScale="1" pageWidth="850" pageHeight="1100" math="0" shadow="0">
            <root>
                <mxCell id="0"/>
                <mxCell id="1" parent="0"/>
                <mxCell id="7" value="http://ics2o.mths.ca" style="swimlane;whiteSpace=wrap;html=1;" parent="1" vertex="1">
                    <mxGeometry x="40" y="40" width="790" height="480" as="geometry"/>
                </mxCell>
                <mxCell id="8" value="&lt;div&gt;&lt;font style=&quot;font-size: 24px;&quot;&gt;API &amp;amp; JSON weather app&lt;/font&gt;&lt;/div&gt;" style="text;html=1;strokeColor=none;fillColor=none;align=center;verticalAlign=middle;whiteSpace=wrap;rounded=0;" vertex="1" parent="7">
                    <mxGeometry x="-140" y="30" width="590" height="30" as="geometry"/>
                </mxCell>
                <mxCell id="10" value="&lt;font style=&quot;font-size: 12px;&quot;&gt;Click the button below to calculate the current temperature&lt;/font&gt;" style="text;html=1;align=center;verticalAlign=middle;resizable=0;points=[];autosize=1;strokeColor=none;fillColor=none;fontSize=24;" vertex="1" parent="7">
                    <mxGeometry y="70" width="330" height="40" as="geometry"/>
                </mxCell>
                <mxCell id="11" value="Click here!" style="rounded=1;whiteSpace=wrap;html=1;fontSize=12;" vertex="1" parent="7">
                    <mxGeometry x="20" y="140" width="120" height="50" as="geometry"/>
                </mxCell>
                <mxCell id="13" value="" style="shape=image;verticalLabelPosition=bottom;labelBackgroundColor=default;verticalAlign=top;aspect=fixed;imageAspect=0;image=data:image/png,iVBORw0KGgoAAAANSUhEUgAAAOEAAADhCAMAAAAJbSJIAAABU1BMVEX///8Alf9aeuTq8PLDy83/31//yQFTdePn7PsNmv8Akv8Ak//a4eNYe+Ugn/8Alv8pjPb/0zn/4Ve4w9D/zACtv7Sm0vZSdukAj/+wwbCvqJnq8PP/4lPHzszx9PG8yu1OduySk6yavbO/qXZnhueRpuzb4vnr7/x0sM3/405NpeLCypSowamgvLmqueGZq+Usnu323GXS0IX156345Zh+v/m1wNE1o/3Y6fPF5f+k0P9zvP9Aqv9kkey2yPXN3/t6mOuJo+3V7P9Xsf8em/PgymjYwVabsp+6x5rAu3qJt8Bgq9R0oLkzoOhqgsx2h8NiftTpvjGZlqWKj7Tbt0umnZZJldn0wx/Pz4h+rr/Cq3BdqN3Iyp07kuzOsVzmwVW8rY7fv1/i1H94i8/lzojszm3azaDLz8HUz7Ls7Nn644Pz6brv69D70k703pquvN6ouPCHy6VIAAAK6UlEQVR4nO3d6Vfb2BUAcDC2VEuDXYSK1NgmBsywmABOWMISxmHJEBjCMMmUZGgnbRLaQsLA//+pklfZkt56rzCu7rc58ZzjH/e+/UkeGIgjjjjiiCOOOOKII4444ogoNja3tjPZQZD4c4IWw2xRejG98wOEbnd127ZtTYfxsQhZQ1VVy6ruzEjxcpvrtg2GcyMLJ6wzLfXl9+LA1SwsD0FYQ1b/JOYb021gHo7QMRaXBHy5PQQfktAxlrhLdTejYQCxhE6385gPuKFDN0BkYSJh7XABUSoUV5gochB3kRKIK0xYzIWayzxMYUJl7W72cDoZfGGixAbcRGuE6EJ1mkmIV6LowoTFMrtZRaxRdKFapQNnUFOILWTpbFYxW2EEQnpLTKMC0YWJRI4CxJvNRCSkDvtbqP1MBEL15f0WaQRVqpKBz5GLNAKhRe5Nxx6+UCUvMXCH+2iE5PECu6OJQEiZfm/jzmgiESaIwgwyMAqhShzz0YSaE3pEQuIuONJwqO0flQ9e/bisRSIkrqBwhNqkYRgjimn+qAGeW/SQUD+cS6VSI4qimK/7Uqgd5VMNoWIe2X0ozFZSLaFi9qFQP57zCn9S+06oPTG8wkdW/wn/GgtjYSyMhbEwFsbCWPj/KVRVidkrmFC30yfLGn1vjluoFq03pz8XhXMNJdSOP6UMo7KwTzPyCq3S1LnzwbNfLME8Agmz5bnaFzfyxxQip7D4VjHrn3xXEiPCCLVybd3uRn6WTOQTFifqvhpRrFBBhPrsXKoVBpnY2MRgExYnlHaYvwoRQYT2QcoTlCyedKzx/0YqPU8G3TgXKlMQ4b7hFabmiET9vdEWviLt03QBFeVUhAginO8UkgtVP/HkcJ4g7CjRWsLf9oyQTNQuDKOxXzpL2C/1Ae9TmO4WkgtV2y+njBFTebWsh+/q+0rUiTf3JrTf+4jk7kbbv/jw04lGOJkJAp4VBYBAo8X8XLeQNmg0Lh2HCf0lKlqkUCP+Ez+RNvSThFYQcEoohVCzNm0y7yPOzdNPkIOF6qm/REWBcDPvSX8WD0SFxbMAoOjiAmz1ZPuJ+WMqMVCovvWl0PxNMIOQK2DbV6jGQnBL1LVm6IHjoTXVLZQAQq7xfW3ReO8XanZ6+eLD5OHfX79+fTg5O/+Pon/dV/y9SyheorBCX1s0yl1CzT45Kh+k8vnaKbf71c3zj/98qxY7kd1CKSDsPk0X0ZjsEGrpo09Gvjk3GGl9f/N86rRjk8L6tUMoU6LQwq62aJx4fSflvPcfR7wG8+OE2jaqb7xC4WECRdjRFo3D9r0/19c5s/MKXcfNRLtBFn8zPUDJ/Ubo3cT2oGEctB4V1vUFo3vm2iV0KP9600rW8JkJBYTfL9U+pNyOxMiXW/+zdlzxzcz9wtqWRiON6vDvpulWr/JIrkQxhINa5qj86enCfKtE9QX/jC5Q6KSx1MxY8XTq3dm7Rz9LA1H2vDXNtlu9qJ5+GgQMFCrmyGmTqBadEN0jxRZ6Q98/8FdoqNBdIslnLVKhvhzQBElCxZwAJuIKw4GhQvAs4grTISVKEirmKeiJG6pQfxoKJAiVc8ETiuiFWuAwQRcqHyGTiCjUjglAotCUH+cjETauWQoIFfMzXJ3iCe3D8EZIE0LWKZpQ92318wjNX8CIaELNvw/OIVTOhntdqM+Tuhm6EC6JWEKtTE4hTSh4SBGhcJ+SQqrQFDoOjU6oTVJSSBfK7T+hCztP9kWEyjlQX4MkPKGlkC4UPEyLSKgdAQgldxFlhe2zh2Z4/9Wm9aQMQuVjUVWl7uzJCLXs8ZO/dMbRsseYpTZDmvDm8suXxcXFu6VqaVhOKSTUjyq1HUNv5Ofen7SMy1QgQThy+e//JEeTyWShHsnbu+qwOFJEqJcDBzsj1Tz01S9oo2H4TtTlf2u6jigURherEd5NJCxsG0/V6rOiwi+Fbl0bOS1mFBAu+8+zm1k8rNcpfbwPFl5/50ufF5mcFmmR/ELS169kGlkWEd5czXxHALrGtSr/fJxfaBO2l4x6SwwS1rojkvBZLjdEETrGO+4sCgg/hScmfxEgdGCV65VnTvyxcu12SEHCkSsHSBc6aeTdiIPOYXeVGpWVr1dDM7lWXH1bqTRv7rUjNeT4WIROa6zyEXHaYeMjRmrl27jLGmqH+1/fVlJGh/Cy8REGoWOc5iLi9KW1aalR+TreqWsjx595hdfNTzEJOYmg42Gl8Xl3PHR8gbwmcvyyDZxpfo5NyEeEnNNUWhfZ5vOpZ0OhvLpx5ttNHVhp/yEYhckCR1sEnJeWl1uXvPavr8Lz187jH7Vh0POnYBUmkyVcIW1tYa9SEtgkXp0r5pXno+zCUeYdAIz1oT42zuCrGYduvnr/FuzCwiJrncKv8fX0BiuwPnYICdmbIrhQT++yA7uDQ5hM3pcw+1wcyCUsLLERoYW6RAY5c8jYnwILbeZORl7ImETgu4mrUkDOHCaZRgxQob4tB+QUsk3eYG/QPpcD8uZwjekxaUChbI1yCwssfQ2kMCPp4xey9DWAQsl+VEDIVKaAwnXpFHILWeY1gE+UbEqnkFtYqEYpzLIsmKCFL+lJBBNqW/Ip5BcyrKHgnuzakAfyt8NbelcDV6UAKeQXMnSmYM8fQhSpgDC6KgUYDEWEo1QgnFB2SioopC8voIRpgLFCRBhZleoAExoRYXKpROtroIR7EM1QQFhI3r4g5xHqaXWQrlRA6J7wLxIPv6GE0ktDYaFjHCWlEUoIMO0WFjpB2B7uEyFhB7xPhMlC6PF+P7TDWoSO/X0jDF1IQQnvazz0EEPW+1Aj/jYEUEoYts544PNShiQ+8LVFh/A2MIkPfH3YSQychD/wNX6nMHDnDWyfJt0DwsBNfri9tt17FwbvS8Htl0KM+ZLCUVThYFoeKC1ErdJBDaA3lRUGzU3hhBDTmt7O4X2cH3YLcdshxH5bT/elgxAniJLjYeACCvY+TcR3MbqFgbdPYG+byK4SJYWBVzOA70RJ1qmcMLCjgb7XpnPcLYUWhtw9gb6bmJVqinI5DPIh3L7MyBCl9mlCrg/Bv5FuXYIoIwzbTsR4I534LWGZ3cSwV9ogPK2uDwp3NxJ73oth54goz+ML7/GLn1uEX1nAeeOAvSdWqaLCwlqYD+/NH1mhhYagsHBLuLCA9o4he31jnBspeEIa2gZRhYO6vT02xGkUOuUe/Uy8rID5Rjpdy6zuciVS5KbCUiKSmwphoTnIsdzQeGh0/hPf8xZOrE1TfPjvL3Vf4m1n9rZWN8eC43FHjLLH2u3S52GG1yyQhVC/re4+y2cHhWaromExvtmF/NvqaL8e34x7//X4bfrvN/S+kAQc2GL4mZFeFyaIwk2b/iV7XfiCKNx4+EJ1iSic6QPhY6IQvTPFFxaJXSl+V4MvLJGB6A0RXajeUYTYZYoutIhzNjeQxwtsoVqlAQdyWfrX7GGhRelJ3VhFTSKykCGFAyi/6xyZ0PqeRYjaneIK1WkWoDMmIhJxhbSxsBXreMM+qlBlqlE3ZtJoy0RMIUs/2oxdG4uIKCzusAMdYhqpUPGEFhfQKdR1nO4GS6gmOEq0ETg9KpLQKlGnowGxkUYwoghVi7qgCInNjA3dHBGEqjpNWfSSYmxvEBYJLVSt0p2Ez43c2Fba3avWgcYPOKGqWsXSnUj788fzsc2t7fUMSGQTwyBRejG98wOILo444ogjjjjiiCOOOOKIgyH+B7VxVs2sXUsXAAAAAElFTkSuQmCC;" vertex="1" parent="7">
                    <mxGeometry x="630" y="45" width="145" height="145" as="geometry"/>
                </mxCell>
            </root>
        </mxGraphModel>
    </diagram>
</mxfile>